<?xml version="1.0" encoding="UTF-8"?>
<svg id="Layer_1" xmlns="http://www.w3.org/2000/svg" version="1.1" viewBox="0 0 287.28 260.64">
  <!-- Generator: Adobe Illustrator 29.8.6, SVG Export Plug-In . SVG Version: 2.1.1 Build 1)  -->
  <path d="M203.28,81.76c-2.26.22-2.86-2.47-3.98-4.05-.77-1.09-1.74-2.38-2.61-3.38-.13-.14-.63-.81-.85-.59,3.92,6.78,6.51,14.66,6.96,22.54s-1.39,18.33,6.55,22.95c.66.38,2.32.45,2.06,1.46-.38.66-1.15,1.11-1.88,1.26-2.06.43-4.96.41-6.97-.26-1.08-.36-1.98-1.13-2.88-1.79-.15,1.15-.98,2.32-1.63,3.29-2.3,3.49-6.27,7.36-10.61,7.74-.17-1.27,1.3-1.8,1.68-3,.23-.72-2.16,1.17-2.33,1.27-1.85,1.12-4.69,2.62-6.91,2.2-2.01-.38.53-2.04,1.03-2.79,1.73-2.55,2.38-6.91,2.92-9.91-15.68-1.29-26.87-15.04-33.96-27.81-.13.81.23,1.68.43,2.45,1.93,7.53,7.12,19.19,13.5,23.92.68.51,1.28.66,1.86,1.02.85.52.44,1.06-.42,1.16-2.51.3-8.5-1.72-11-2.7-14.83-5.88-25.9-20.12-25.86-36.39l-6.11,13.43c-2.51,4.88-10.1,18.01-15.01,20.02-.63.26-1.22.42-1.92.36.05,5.29.84,10.84,3.23,15.59.41.81,1.34,2.53,1.8,3.24.28.44,2.08,1.64.98,2.4-.81.56-4.79-.78-5.77-1.21-1.44-.64-3.21-2.26-4.44-2.75-.34-.13-.39.04-.36.35.16,1.24,1.31,2.2,1.2,3.48-.6.59-2.85-1.36-3.36-1.79-2.45-2.1-4.87-5.26-6-8.28-1.03,1.23-2.05,3.07-3.84,3.12-.19-.19.67-3.53.72-4.2.22-3.05-.66-6.7-1.2-9.71-1.43.5-3.21,1.92-4.69,2.14-1.22.18-4.43-.06-5.72-.25-2.14-.3-3.48-2.29-3.74-4.29,1.17-.3,1.15.61,2.24.63,4.11.07,6.29-1.53,8.05-5.09,2.84-5.72.12-12.76.5-18.92.46-7.36,4.04-16.57,8.55-22.38.54-.7,3.09-3.22,3.21-3.5s-.05-.44-.35-.35c-.52.15-3.49,2.57-4.09,3.11-3.96,3.51-10.02,11.29-10.44,16.66-.09,1.08.78,4.75-1.27,3.44-.63-.4-.45-1.94-.4-2.71,1-15.45,13.44-27.5,26.79-33.66,8.67-4,15.92-4.49,25.4-3.87,1.64.11,4.31.83,5.76.73.94-.06,2.23-1.05,3.18-1.4,17.48-6.45,48.13,9,57.07,24.64.79,1.38,5.61,11.78,4.91,12.47ZM97.44,61.87h-.48s0,.48,0,.48l.48-.48ZM189.24,127.32v.24c.16-.08.16-.16,0-.24Z" fill="#240e08"/>
</svg>