<?xml version="1.0" encoding="UTF-8"?>
<svg id="Layer_1" xmlns="http://www.w3.org/2000/svg" version="1.1" viewBox="0 0 287.28 260.64">
  <!-- Generator: Adobe Illustrator 29.8.6, SVG Export Plug-In . SVG Version: 2.1.1 Build 1)  -->
  <g opacity=".5">
    <path d="M61.44,229.59c.47-4.65,4.6-9.87,8.05-12.82,7.19-6.16,17.37-7.75,26.1-10.85,9.84-3.5,19.29-8.01,28.84-12.19l.34-.38.29-11.48c-.66-3.73.05-7.76-.24-11.51-.23-2.86-.86-2.11-2.87-3.37-7.56-4.73-13.72-12.68-16.94-20.96-1.88,2.28-5.89,2.01-8.37.92-6.35-2.81-11.17-14.11-9.21-20.64,1.15-3.83,4.48-6.39,8.57-5.47-3.05-5.26-5.32-11.14-6.17-17.21-4.58-32.42,24.13-57.2,55.26-55.69s54.42,27.38,48.48,58.04c-.8,4.12-2.32,7.91-3.96,11.74,8.5-.66,8.56,8.03,6.48,14.03-2.09,6.04-8.13,13.37-15.09,13.1-3.26,9.34-10.38,16.74-18.4,22.26-.49,5.07-.29,10.15-.35,15.24,0,.57-.25,1.09-.26,1.66-.03,3.11-.1,6.24.29,9.32l.34.38c2.99,1.32,5.81,3,8.72,4.47,4.71,2.37,9.92,4.98,14.88,6.71,16.37,5.7,42.98,8.53,39.36,32.35v23.15s-1.43,0-1.43,0v-31.05c0-.71-.89-3.04-1.23-3.8-6.79-15.04-33.81-15.66-46.85-23.21-.42-.25-.62-.77-1.12-.68-2.8,5.11-7.19,9.75-11.93,13.14-17.47,12.51-38.28,7.7-49.76-9.9-.57-.88-1.28-2.58-1.8-3.24-.13-.16-.23-.28-.46-.25-3.59,1.64-7.3,2.98-11,4.38-13.22,5-32.94,7.41-36.87,23.35l-.27,31.26h-1.44v-30.81ZM186.88,121.73c-.43.45-1.65,1.36-1.8.25,17.66-26.07,4.4-58.72-24.15-69.22-22.92-8.43-50.08-.5-63.1,20.41-9.52,15.28-9.3,34.13.72,49.12.48.72,3.14,2.99.82,2.77-2.98-3.63-7.32-5.08-10.13-.29-3.62,6.17,1.45,18.25,7.72,21.16,2.91,1.35,5.95,1.29,8.13-1.23l-2.1-7.14.58-.39c.76.16,1.88,5.17,2.22,6.18,4.25,12.5,10.35,18.39,21.59,24.95,2.99,1.74,11.94,6.04,15.11,6.26s13.34-5.07,16.41-6.81c7.17-4.05,17.2-14.23,20.22-22,1.5-3.87,2.5-7.97,3.8-11.91l.93-.03-2.88,10.07c2.36.28,4.42-.67,6.31-1.96,5.42-3.68,11.07-13.71,8.3-20.19-1.4-3.26-5.32-3.88-7.78-1.35-.4.4-.57,1-.92,1.36ZM161.04,167.85c-5.17,2.35-10.01,5.49-15.47,7.2-2.45.77-2.97.95-5.53.23-4.69-1.3-9.46-4.06-13.79-6.24.49,8.21.17,16.49.13,24.71l-1.16,1.23-12.64,5.84c7.41,14.75,23.28,23.04,39.6,17.97,9-2.8,17.14-9.67,21.6-17.86l-12.8-6.53c-.62-4.11-.44-8.37-.41-12.54,0-.93.24-1.9.26-2.85.06-3.7-.25-7.53.23-11.16Z" fill="#111215"/>
    <path d="M169.39,218.4c-9.03,7.88-21.13,12.82-33.27,10.43-.87-.17-5.32-1.26-5.53-1.91l.08-.82.5-.24c11.43,4.57,23.62,1.68,33.31-5.31.81-.58,3.48-3.05,3.99-3.21.88-.29,1.13.27.92,1.06Z" fill="#121417"/>
    <path d="M128.59,224.48l-.32,1.16c-6.88-3.69-13.06-8.58-17.86-14.76-.71-.92-2.3-2.82-2.7-3.78s.21-1.51,1.01-1.01c.29.17,3.29,4.61,3.96,5.4,4.46,5.32,9.9,9.55,15.91,12.99Z" fill="#121417"/>
    <path d="M171.36,215.32c-.09-.06-.38-1.16-.02-1.33,1.25-.83,6.31-7.76,7.33-7.55.96.2-.07,1.65-.36,2.03-.87,1.12-5.17,6.01-6.1,6.61-.22.14-.64.37-.85.23Z" fill="#131518"/>
    <path d="M186.88,121.73c.34-.36.52-.96.92-1.36,2.46-2.52,6.38-1.91,7.78,1.35,2.77,6.48-2.88,16.51-8.3,20.19-1.9,1.29-3.96,2.24-6.31,1.96l2.88-10.07-.93.03c-1.3,3.93-2.3,8.04-3.8,11.91-3.02,7.77-13.05,17.95-20.22,22-3.07,1.73-13.36,7.01-16.41,6.81s-12.12-4.52-15.11-6.26c-11.24-6.55-17.34-12.45-21.59-24.95-.34-1.01-1.46-6.02-2.22-6.18l-.58.39,2.1,7.14c-2.19,2.52-5.22,2.58-8.13,1.23-6.27-2.9-11.34-14.99-7.72-21.16,2.81-4.79,7.14-3.35,10.13.29,2.31.21-.34-2.05-.82-2.77-10.01-14.99-10.23-33.84-.72-49.12,13.03-20.91,40.18-28.84,63.1-20.41,28.55,10.5,41.81,43.15,24.15,69.22.15,1.12,1.37.21,1.8-.25Z" fill="#e7d3d2"/>
    <path d="M161.04,167.85c-.49,3.63-.18,7.46-.23,11.16-.01.95-.25,1.92-.26,2.85-.03,4.17-.21,8.43.41,12.54l12.8,6.53c-4.46,8.19-12.59,15.07-21.6,17.86-16.32,5.07-32.19-3.22-39.6-17.97l12.64-5.84,1.16-1.23c.04-8.22.36-16.5-.13-24.71,4.33,2.18,9.1,4.93,13.79,6.24,2.56.71,3.08.54,5.53-.23,5.46-1.71,10.3-4.85,15.47-7.2Z" fill="#e7d3d2"/>
  </g>
</svg>