<?xml version="1.0" encoding="UTF-8"?>
<svg id="Layer_1" xmlns="http://www.w3.org/2000/svg" version="1.1" viewBox="0 0 287.28 260.64">
  <!-- Generator: Adobe Illustrator 30.3.0, SVG Export Plug-In . SVG Version: 2.1.3 Build 182)  -->
  <path d="M0,260.64V0h287.28v260.64H0ZM179.04,115.91l4.9,3.12c-.02-.7-.56-1.34-1.16-1.68l-5.25-2.92c-6.02-3.34-13.47-4.29-19.52-.69-1.46.87-3.32,1.36-3.99,3.27l4.13-2.66c7.52-4.05,13.48-2.4,20.88,1.55ZM129.62,115.04l4.12,2.64c-.72-1.91-2.6-2.46-4.13-3.32-2.14-1.2-4.43-2.16-6.96-2.15h-3.36c-3.92.41-7.43,1.96-10.78,3.86-1.73.98-3.8,1.56-4.76,3.58l4.72-2.92c3.63-1.97,7.35-3.65,11.52-4,3.46-.29,6.81.51,9.63,2.31ZM112.2,130.52c.78.25,2.04,1.19,2.79,1.26l5.28.51,4.1-.32c2-.15,3.62-.72,5.38-1.62.92-.47,2.39-1.04,2.77-2.01.11-.27-.42-.87-.67-.84-1.1.16-2.38,1.95-4.92,2.41l-2.62.48c2.7-.91,4.91-3.2,4.96-6.2s-2.19-5.53-5.27-6.37c.46-.25,1.3-.33,1.95-.1,3.1,1.08,5.63,2.8,8.14,4.87.25.21.82.49,1.03.32.17-.14.44-.55.49-.77s-.43-.52-.63-.71c-2.24-2.07-4.56-3.78-7.3-5.2-1.03-.54-2.34-1.42-3.56-1.44-3.09-.06-6.26.17-9.13,1.28l-4.31,1.67c-2.43.94-4.82,1.86-6.79,3.79.94,1.18,2.44,1.78,3.17,2.81.65.91,1.49,3.31,2.67,2.88.96-.34-1.35-2.25-1.51-4.35,2.96-2.33,6.18-3.71,9.96-4.26-2.52,1.74-4.09,4.24-3.44,7.23.35,1.59,1.56,2.93,2.82,3.85l2.71,1.06-4.21-.25c-1.53-.09-2.85-.85-4-1.85-.8.19-1.65,1.1-1.36,2.02.12.37,1.1,0,1.5-.16ZM175.27,123.55l4.04,2.05c.69.35,1.11.61,1.82,1.24l2.54-2.09c-1.92-2.03-4.27-2.79-6.68-3.82-2.97-1.27-5.81-2.32-9.06-2.7-1.97-.23-4.1-.57-5.99.18-3.58,1.43-6.6,3.61-9.4,6.16-.2.18-.73.5-.65.71s.34.61.49.78.69-.08.89-.24c2.09-1.67,4.17-3,6.51-4.32,1.04-.59,2.38-.92,3.64-.81,2.61.23,5.29.14,7.71,1.14l4.14,1.72ZM110.63,128.82c.26-.16.59-.64.62-.89s-.69-.6-.94-.53c-.52.14-1.21,1.02-1.27,1.52-.02.19.58.52.74.42l.85-.51Z" fill="#fff"/>
  <path d="M112.2,130.52c-.4.17-1.38.54-1.5.16-.29-.92.56-1.83,1.36-2.02,1.15,1,2.47,1.76,4,1.85l4.21.25-2.71-1.06c-1.26-.92-2.47-2.26-2.82-3.85-.65-3,.92-5.5,3.44-7.23-3.79.55-7,1.93-9.96,4.26.17,2.09,2.47,4,1.51,4.35-1.18.42-2.02-1.98-2.67-2.88-.73-1.03-2.23-1.63-3.17-2.81,1.96-1.93,4.36-2.85,6.79-3.79l4.31-1.67c2.87-1.11,6.04-1.33,9.13-1.28,1.22.02,2.53.91,3.56,1.44,2.74,1.42,5.06,3.13,7.3,5.2.2.18.67.49.63.71s-.31.63-.49.77c-.21.17-.78-.12-1.03-.32-2.51-2.08-5.04-3.79-8.14-4.87-.64-.23-1.48-.15-1.95.1,3.08.84,5.32,3.23,5.27,6.37s-2.27,5.3-4.96,6.2l2.62-.48c2.54-.46,3.82-2.25,4.92-2.41.25-.04.78.57.67.84-.39.97-1.86,1.54-2.77,2.01-1.76.9-3.38,1.46-5.38,1.62l-4.1.32-5.28-.51c-.74-.07-2.01-1.01-2.79-1.26ZM126.96,126.53c1.58-2.56.48-5.57-2.06-6.76-2.28-1.06-4.87-.73-6.77.87-1.38,1.17-2.09,2.75-1.83,4.47.23,1.53,1.14,2.92,2.75,3.67,2.75,1.27,6.24.45,7.91-2.25Z"/>
  <path d="M175.27,123.55l-4.14-1.72c-2.41-1-5.1-.9-7.71-1.14-1.26-.11-2.59.22-3.64.81-2.33,1.32-4.41,2.65-6.51,4.32-.2.16-.74.41-.89.24s-.41-.57-.49-.78.45-.53.65-.71c2.8-2.55,5.82-4.73,9.4-6.16,1.89-.75,4.02-.41,5.99-.18,3.25.38,6.09,1.44,9.06,2.7,2.41,1.03,4.77,1.79,6.68,3.82l-2.54,2.09c-.71-.63-1.13-.89-1.82-1.24l-4.04-2.05Z"/>
  <path d="M179.04,115.91c-7.4-3.96-13.36-5.6-20.88-1.55l-4.13,2.66c.67-1.91,2.52-2.4,3.99-3.27,6.05-3.6,13.5-2.65,19.52.69l5.25,2.92c.6.33,1.15.98,1.16,1.68l-4.9-3.12Z"/>
  <path d="M129.62,115.04c-2.82-1.81-6.18-2.6-9.63-2.31-4.17.35-7.9,2.02-11.52,4l-4.72,2.92c.96-2.03,3.03-2.6,4.76-3.58,3.35-1.9,6.86-3.45,10.78-3.86h3.36c2.53-.02,4.82.94,6.96,2.14,1.53.86,3.41,1.42,4.13,3.32l-4.12-2.64Z"/>
  <path d="M110.63,128.82l-.85.51c-.17.1-.77-.22-.74-.42.06-.5.75-1.38,1.27-1.52.25-.07.98.28.94.53s-.36.73-.62.89Z"/>
  <path d="M126.96,126.53c-1.67,2.7-5.16,3.51-7.91,2.25-1.61-.74-2.51-2.13-2.75-3.67-.26-1.72.45-3.31,1.83-4.47,1.89-1.6,4.49-1.92,6.77-.87,2.54,1.18,3.64,4.2,2.06,6.76ZM122.32,125.7c.56-.34.65-1.24.43-1.67-.18-.37-.96-.86-1.36-.7-.77.32-.97,1.18-.69,1.68s.98,1.06,1.61.68Z" fill="#fff"/>
  <path d="M122.32,125.7c-.62.38-1.33-.18-1.61-.68s-.08-1.36.69-1.68c.4-.16,1.17.33,1.36.7.21.43.13,1.33-.43,1.67Z"/>
</svg>