<?xml version="1.0" encoding="UTF-8"?>
<svg id="Layer_1" xmlns="http://www.w3.org/2000/svg" version="1.1" viewBox="0 0 287.28 260.64">
  <!-- Generator: Adobe Illustrator 30.3.0, SVG Export Plug-In . SVG Version: 2.1.3 Build 182)  -->
  <g opacity=".5">
    <path d="M-1.48,262.15V-1.63h290.24v263.91H-1.48v-.12ZM150.3,159.87c1.34-1.26,2.63-2.8,2.93-4.7-.85-1.07-2.26-1.81-3.55-1.97l-2.81-.35c-3.66-.46-11.32-.48-12.38,1.54-.97,1.86,2.45,5.87,5.22,7.07,3.75,1.63,7.65,1.16,10.59-1.6Z" fill="#fff"/>
    <path d="M150.3,159.87c-2.95,2.76-6.85,3.23-10.59,1.6-2.76-1.2-6.19-5.21-5.22-7.07,1.06-2.03,8.71-2,12.38-1.54l2.81.35c1.29.16,2.7.89,3.55,1.97-.29,1.9-1.58,3.44-2.93,4.7ZM151.19,155.52c.21-.02.58.03.58-.08l.02-.49c-1.63-.6-3.36-1.15-5.12-1.14l-7.64.07c-1.25.01-2.23.27-3.4.9.35.39.94.77,1.49.81l7.34.62c2.27.19,4.45-.33,6.72-.7ZM150.59,157.3l-.64-.24-6.6.28c-1.65.08-3.39-.1-5.03-.47-.79-.18-1.22-.29-1.93.35,1,1.59,2.45,2.79,4.27,3.41,6.31,2.15,10.82-3,9.94-3.33Z"/>
    <path d="M150.59,157.3c.88.33-3.63,5.48-9.94,3.33-1.82-.62-3.27-1.82-4.27-3.41.7-.64,1.14-.53,1.93-.35,1.64.37,3.39.54,5.03.47l6.6-.28.64.24Z" fill="#fff"/>
    <path d="M151.19,155.52c-2.27.37-4.45.89-6.72.7l-7.34-.62c-.55-.05-1.14-.42-1.49-.81,1.17-.64,2.16-.89,3.4-.9l7.64-.07c1.76-.02,3.49.54,5.12,1.14l-.02.49c0,.12-.37.07-.58.08Z" fill="#fff"/>
  </g>
</svg>