<?xml version="1.0" encoding="UTF-8"?>
<svg id="Layer_1" xmlns="http://www.w3.org/2000/svg" version="1.1" viewBox="0 0 287.28 260.64">
  <!-- Generator: Adobe Illustrator 30.3.0, SVG Export Plug-In . SVG Version: 2.1.3 Build 182)  -->
  <path d="M175.39,130.21l-2.88,1.32-5.26.52-4.1-.32c-2-.15-3.62-.73-5.38-1.62-.91-.46-2.38-1.06-2.77-1.99-.09-.21.28-.81.47-.82,1.24-.08,2.34,1.86,5.12,2.37l2.62.48c-2.77-.93-5.01-3.32-4.97-6.41s2.42-5.4,5.29-6.19c-.74-.27-1.51-.27-2.15-.03-4.85,1.82-8.15,5.3-8.82,5.21-.22-.03-.55-.44-.62-.65-.09-.25.33-.64.6-.88,2.29-2.1,4.66-3.84,7.46-5.28.99-.51,2.25-1.34,3.42-1.36,3.03-.06,6.02.4,8.95,1.23l4.81,1.86c2.38.92,4.5,1.76,6.51,3.69l-3.23,2.64c-.46,1.01-.96,1.87-1.68,2.86l-.98.16c-1.1.18,1.36-2.49,1.52-4.34-2.97-2.34-6.18-3.72-9.97-4.26,2.51,1.74,4.11,4.22,3.43,7.24-.34,1.49-1.5,3.05-2.84,3.8l-2.67,1.11,4-.24c1.63-.1,2.98-.79,4.23-1.89.66.16,1.43,1.11,1.45,1.76,0,.2-.48.64-.64.55l-.9-.49ZM168.39,128.57c1.77-.78,2.67-2.28,2.85-3.9s-.53-3.15-1.86-4.27c-2.17-1.82-5.32-2.01-7.66-.31-2,1.45-2.47,4.18-1.12,6.27,1.63,2.53,4.96,3.46,7.79,2.21Z"/>
  <path d="M115.52,122.28l-3.99,1.62-3.95,2.01c-.83.42-1.35.68-2.16,1.4l-2.54-2.08c1.97-2.07,4.38-2.84,6.85-3.89,2.85-1.22,5.58-2.22,8.69-2.61,2.04-.25,4.23-.63,6.19.15,3.58,1.42,6.6,3.61,9.4,6.16.2.18.73.5.65.71s-.34.61-.49.78-.69-.08-.89-.24c-2.09-1.67-4.17-3.02-6.5-4.32-1.05-.59-2.38-.92-3.64-.8-2.53.23-5.16.12-7.62,1.12Z"/>
  <path d="M127.77,114.5c-7.34-3.73-13.36-1.8-20.33,1.93l-4.83,3.08c.02-.69.57-1.34,1.16-1.68l5.09-2.84c6.09-3.39,13.55-4.41,19.68-.77,1.46.87,3.33,1.37,3.99,3.27l-4.77-2.99Z"/>
  <path d="M179.14,116.52c-7.32-3.98-13.74-5.9-21.23-1.72l-4.11,2.64c.67-1.86,2.5-2.41,3.97-3.25,2.19-1.24,4.52-2.24,7.12-2.24h3.13c3.7.28,7.12,1.59,10.24,3.42l4.88,2.85c.29.17.57.91.51,1.2l-4.5-2.9Z"/>
  <path d="M178.47,128.61c.04.2-.56.59-.73.48l-.76-.48c-.22-.14-.58-.52-.71-.73-.16-.25.59-.81.95-.73.45.1,1.16.97,1.25,1.46Z"/>
  <path d="M165.94,125.53c-1.06.26-1.37-.73-1.27-1.39.09-.57.81-1.28,1.53-1.02.32.12.77.85.77,1.19,0,.39-.62,1.12-1.03,1.22Z"/>
</svg>