<?xml version="1.0" encoding="UTF-8"?>
<svg id="Layer_1" xmlns="http://www.w3.org/2000/svg" version="1.1" viewBox="0 0 287.28 260.64">
  <!-- Generator: Adobe Illustrator 29.8.6, SVG Export Plug-In . SVG Version: 2.1.1 Build 1)  -->
  <g opacity=".5">
    <path d="M125.04,187.15c.24.95.78-.76,1.44-.36l-.24,6.96c-1.19-.64-1.91-.04-3,0-3.84.11-6.82,0-9.83-2.64l-2.76-3.35c-.8,3.48-3.83,7.55-7.31,8.64-.89.28-4.94,1.07-4.94-.37,0-.83,1.15-.36,1.41-1,1.95-4.95-4.45-7.96-8.36-8.47.05,1.58,1.51,3.63,2.76,4.55,1.13.83,1.32.47,2.3,1.73.2.25.83.23.34.67-4.12.06-7.65-2.87-10.69-5.39-2-1.66-1.34-1.08-3.66-2.1-1.52-.67-2.65-1.89-3.77-3.07-.5,1.84-.18,4.13.43,5.92s1.18,2.02,2.93,2.48l-.5,1.42c-5.63-.92-9.92-3.23-12.5-8.45-3.68-7.44-3-16.27,1.2-23.34,2.59-4.37,7.09-7.32,10.08-11.51,5.64-7.92,5.95-14.04,6.06-23.46.12-10.19-.65-20.63,1.55-30.8,6.44-29.82,32.54-54.39,64.64-47.55,23.39,4.99,39.68,26.51,43.85,49.23,1.46,7.94,1.95,16.11-.13,23.98-.31-.34-1.75-1.57-2.06-1.62-.28-.05-.72.22-1.15.18-.66-.06-1.34-.73-2.18-.72-1.15,0-4.34,1.36-4.62,2.58-.13.56.02,1.12-.08,1.6-1.5,6.83-1.95,14.02-1.42,21,2.82-1.59,5.13-3.68,6.91-6.4.55-.85,2.15-4.36,2.55-4.65.46-.33,1.09-.31,1.6-.12.79,3.6,2.05,7.35,3.78,10.61,3.24,6.11,10.48,14.51,11.26,21.36,1.06,9.27-7.36,20.37-15.37,24.32-1.6.79-3.7,1.41-5.44,1.87-.64-.73,3.23-4.62,3.83-5.4,1.4-1.82,3.01-3.92,3.73-6.11.07-.21.57-1.4.12-1.44-1.37,3.3-3.9,5.97-6.84,7.92-3.11,2.06-7.13,3.54-9.59,6.49-2.09,2.51-1.77,4,1.3,5.26-.15,1.33-2.39.64-3.28.28-3.61-1.46-6.7-5.62-6.08-9.64-1.07.77-2.06,1.76-3.19,2.45-.7.43-3.84,2.07-4.48,2.23-.79.2-3.86.37-4.22-.37,0-4.56-.34-9.22-.12-13.79.1-2.02.79-4.6.74-6.47-.03-1.22-.94-4.4-.7-5.21.15-.5,1.79-1.01,2.44-1.42,2.95-1.87,5.51-4.21,7.8-6.84.24-.82-.38-2.38-.43-3.31-.4-6.55,2.3-13.82,4.99-19.7,3.6-7.84,8.56-14.23,9.16-23.22,1.43-21.61-12.93-43.07-34.51-47.52-1.23-.25-3.63-.79-4.78-.73-.47.02-.94.74-1.53.31-.38-1.3-.6-2.89-1.16-4.12-.13-.28.11-.43-.5-.33l-2.41,4.21c-.32.16-.83-.17-1.28-.12-26.94,2.96-43.29,28.72-38.49,54.7.94,5.09,3.23,8.3,5.09,12.9,1.61,3.99,3.2,9.5,3.48,13.79.1,1.53-.46,5.5-.19,6.42.11.37,3.89,5.75,4.41,6.38,1.59,1.93,5.6,5.37,7.62,6.89.89.67,3.53,1.67,4.12,2.48s1.08,5.67.56,6.56c-.25.43-.68.35-.68.39v12.35ZM87.42,133.02c.06.11.49.19.72.59.96,1.73,1.48,3.98,2.38,5.78,1.03,2.07,7.24,9.56,9.1,5.32,2.3-5.23,1.83-14.48-.14-19.79-2.51-1.46-3.43-3.42-6.65-3.05-3.58.4-5.17,2.36-5.64,5.87-.12.88-.12,4.65.24,5.28Z" fill="#250e08"/>
  </g>
</svg>