<?xml version="1.0" encoding="UTF-8"?>
<svg id="Layer_1" xmlns="http://www.w3.org/2000/svg" version="1.1" viewBox="0 0 287.28 260.64">
  <!-- Generator: Adobe Illustrator 29.8.6, SVG Export Plug-In . SVG Version: 2.1.1 Build 1)  -->
  <g opacity=".5">
    <path d="M181.36,56.19c3.2,2.84,7.34,6.98,9.93,10.35.79,1.03.73,1.25,1.34,2.25,3.74,6.1,11.41,9.22,13.46,17,2.28,8.66-3.89,12.51-3.02,20.29.61,5.48,6.8,8.14,7.39,13.24.43,3.75-1.75,8.25-3.72,11.34-.45.71-1.42,1.5-1.72,2.11s-1.05,3.8-1.02,4.49c.06,2,2.66,4.01,3.84,5.53,3.33,4.27,5.27,7.6,2.94,12.99-2.15,4.94-8.98,5.09-9.18,10.5-.15,4.08,4.53,2.04,4.8,3.63-.87,1.8-4.22,2.2-6.05,1.95-1.48-.2-4.06-1.39-5.14-2.42-.38-.37-.57-1.14-1.04-1.35-.36,1.36-2.04,1.59-3.1,2.3-.79.53-2.9,2.29-3.09,3.15-.3,1.35.43,1.39.78,2.24.42,1.01-.85,1.95-1.88,1.89-2.65-.14-3.62-2.21-4.59-4.3-1.07,1.14-3.27,2.3-4.84,2.37-1.16.06-5.66-.82-4.53-2.62.21-.34.96-.38,1.31-.61,1.79-1.22,2.57-4.2,1.95-6.22-.11-.34.14-.42-.48-.35,0,.69-.33,1.26-.72,1.8-1.1,1.53-4.95,3.95-5.58,5.46-.81,1.95,1.51,2.7.28,3.88-2.35,2.24-4.85-.25-5.87-2.5-.28.65-1.24,1.42-1.69.47-.27-.57.18-1.34.15-2.03-.09-1.94-.74-4.09.21-6.01,3.83-3.36,9.03-6.59,12.01-10.78,1.84-2.58,3.1-6.13,4.7-8.74.3-.49.96-.68,1.02-.78.4-.69-.9-1.6.76-2.24.46-.18,3.86-.8,3.84-1.19-5.47-3.14-7.12-6.63-5.68-12.88.87-3.76,2.85-5.32,4.13-8.35,6.3-15-1.36-36.64-13.07-47.12-5.34-4.77-16.91-10.99-24.18-10.6-.47.02-.94.74-1.53.31l-1.3-4.46c-.48-.11-.33.21-.5.45-.44.65-1.88,3.58-2.26,3.76-.44.12-.81-.17-1.28-.12-25.67,2.82-41.83,26.34-39.01,51.39.3,2.69.91,5.66,1.87,8.01,2.17,5.34,6.45,12.84.34,17.27-2.91,2.11-6.1.41-7.98,3.25,1.36,1.2,1.36,2.45,3.29,2.97,1.27.34,5.26.57,6.24-.23.37-.31.2-1.62,1.5-1.02.8.37,2.39,4.89,2.92,5.96,1.98,4.05,9.65,12.21,13.57,14.5,1.49.87,3.52.92,3.68,3.07.03.44-.44.19-.51.67-.27,2.14.2,4.9.15,7.09-.74,1.27-4.94,1.84-4.6-.01.12-.64,2.43-.96,2.06-2.62-2.31.7-4.56-.11-6.56-1.24l-1.96-1.63c-.93,1.95-1.26,4.13-3.31,5.32-1.81,1.06-5.33,1.36-7.37.91.08-1.7,2.3-1.73,2.77-3.34,1.32-4.53-5.75-4.25-8.46-5.48-.91-.41-1.94-1.55-2.36-1.72s-.32.16-.41.3c-.21.35-.8,1.47-.86,1.79-.19,1.01.92,3.38,1.78,3.87.81.46,3.25.24,3.82.98.34.45-.55,1.12-.97,1.2-4.56.87-11.17-2.54-11.88-7.43-2.12,2.16-5.55,4.61-8.73,4.29-2.97-.3-6.38-3.02-7.1-5.97,2.32.08,5.43,1.59,6.49-1.55,1.23-3.62-2.89-4.51-5.27-6.03-3.53-2.25-4.12-6.28-2.91-10.06,1.5-4.69,5.06-5.92,7.92-9.35,2.1-2.51,2.32-3.52,1.08-6.58-1.45-3.56-5.23-5.64-6.8-9.27-1.42-3.27.06-8.1,1.93-10.96,2.89-4.41,9.8-8.23,10.28-13.47.31-3.41-1.84-4.78-2.53-7.78-1.04-4.54,1.07-9.73,3.54-13.51,2.15-3.3,6.39-5.55,9.31-8.45,5.5-5.46,8.82-11.1,15.68-15.51,7.75-4.98,15.37-8.07,24.78-7.64,2.25.1,5.79,1.12,7.68.98s4.37-1.29,6.71-1.45c9.56-.66,25.22,3.98,32.43,10.39ZM191.94,118.04c-.34-.15-.64-.08-.99-.04-.56.06-2.54.56-3.1.75-1.59.52-1.51,2.84-1.97,4.02-.58,1.48-1.47,2.71-1.87,4.36-.45,1.85-.85,6.97.3,8.47.95,1.23,5.19,2.27,6.58,3.45,2.25-2.18,3.53-4.99,4.58-7.9.74-2.05,1.05-3.9,1.1-6.1.09-3.96-1.39-4.65-4.39-6.62-.14-.09-.18-.37-.24-.4ZM93.06,120.9c-1.42.29-4.15,3.53-4.7,4.89-1.49,3.64-.04,9.97,2.01,13.27,2.85-3.83,9.45-1.02,10.17-6.86.48-3.93-.9-4.9-1.98-8.06-.38-1.11.38-1-1.14-2.2-1.32-1.05-2.66-1.39-4.36-1.04Z" fill="#250e08"/>
    <path d="M125.28,181.99l-.24-2.64c1.33.09,1.25,2.09.24,2.64Z" fill="#37221d"/>
  </g>
</svg>